<svg width="89" height="23" viewBox="0 0 89 23" fill="none" xmlns="http://www.w3.org/2000/svg">
<path d="M0.0400001 22V0.699999H14.5V5.02H4.96V9.61H12.82V13.6H4.96V22H0.0400001ZM26.1571 22.18C24.5571 22.18 23.1071 21.88 21.8071 21.28C20.5271 20.66 19.4171 19.84 18.4771 18.82C17.5571 17.78 16.8471 16.62 16.3471 15.34C15.8471 14.04 15.5971 12.7 15.5971 11.32C15.5971 9.9 15.8571 8.55 16.3771 7.27C16.9171 5.99 17.6571 4.85 18.5971 3.85C19.5571 2.83 20.6871 2.03 21.9871 1.45C23.2871 0.869998 24.7071 0.579999 26.2471 0.579999C27.8271 0.579999 29.2571 0.889999 30.5371 1.51C31.8371 2.11 32.9471 2.93 33.8671 3.97C34.8071 5.01 35.5271 6.18 36.0271 7.48C36.5271 8.76 36.7771 10.07 36.7771 11.41C36.7771 12.83 36.5171 14.18 35.9971 15.46C35.4771 16.74 34.7371 17.89 33.7771 18.91C32.8171 19.91 31.6871 20.71 30.3871 21.31C29.1071 21.89 27.6971 22.18 26.1571 22.18ZM20.6071 11.38C20.6071 12.2 20.7271 13 20.9671 13.78C21.2071 14.54 21.5571 15.22 22.0171 15.82C22.4971 16.42 23.0871 16.9 23.7871 17.26C24.4871 17.62 25.2871 17.8 26.1871 17.8C27.1271 17.8 27.9471 17.62 28.6471 17.26C29.3471 16.88 29.9271 16.38 30.3871 15.76C30.8471 15.14 31.1871 14.45 31.4071 13.69C31.6471 12.91 31.7671 12.12 31.7671 11.32C31.7671 10.5 31.6471 9.71 31.4071 8.95C31.1671 8.19 30.8071 7.51 30.3271 6.91C29.8471 6.29 29.2571 5.81 28.5571 5.47C27.8571 5.13 27.0671 4.96 26.1871 4.96C25.2471 4.96 24.4271 5.14 23.7271 5.5C23.0471 5.86 22.4671 6.35 21.9871 6.97C21.5271 7.57 21.1771 8.26 20.9371 9.04C20.7171 9.8 20.6071 10.58 20.6071 11.38ZM48.9501 22.18C47.3501 22.18 45.9001 21.88 44.6001 21.28C43.3201 20.66 42.2101 19.84 41.2701 18.82C40.3501 17.78 39.6401 16.62 39.1401 15.34C38.6401 14.04 38.3901 12.7 38.3901 11.32C38.3901 9.9 38.6501 8.55 39.1701 7.27C39.7101 5.99 40.4501 4.85 41.3901 3.85C42.3501 2.83 43.4801 2.03 44.7801 1.45C46.0801 0.869998 47.5001 0.579999 49.0401 0.579999C50.6201 0.579999 52.0501 0.889999 53.3301 1.51C54.6301 2.11 55.7401 2.93 56.6601 3.97C57.6001 5.01 58.3201 6.18 58.8201 7.48C59.3201 8.76 59.5701 10.07 59.5701 11.41C59.5701 12.83 59.3101 14.18 58.7901 15.46C58.2701 16.74 57.5301 17.89 56.5701 18.91C55.6101 19.91 54.4801 20.71 53.1801 21.31C51.9001 21.89 50.4901 22.18 48.9501 22.18ZM43.4001 11.38C43.4001 12.2 43.5201 13 43.7601 13.78C44.0001 14.54 44.3501 15.22 44.8101 15.82C45.2901 16.42 45.8801 16.9 46.5801 17.26C47.2801 17.62 48.0801 17.8 48.9801 17.8C49.9201 17.8 50.7401 17.62 51.4401 17.26C52.1401 16.88 52.7201 16.38 53.1801 15.76C53.6401 15.14 53.9801 14.45 54.2001 13.69C54.4401 12.91 54.5601 12.12 54.5601 11.32C54.5601 10.5 54.4401 9.71 54.2001 8.95C53.9601 8.19 53.6001 7.51 53.1201 6.91C52.6401 6.29 52.0501 5.81 51.3501 5.47C50.6501 5.13 49.8601 4.96 48.9801 4.96C48.0401 4.96 47.2201 5.14 46.5201 5.5C45.8401 5.86 45.2601 6.35 44.7801 6.97C44.3201 7.57 43.9701 8.26 43.7301 9.04C43.5101 9.8 43.4001 10.58 43.4001 11.38ZM62.413 22V0.699999H70.363C72.703 0.699999 74.653 1.18 76.213 2.14C77.793 3.08 78.983 4.36 79.783 5.98C80.583 7.58 80.983 9.36 80.983 11.32C80.983 13.48 80.543 15.36 79.663 16.96C78.783 18.56 77.543 19.8 75.943 20.68C74.363 21.56 72.503 22 70.363 22H62.413ZM75.973 11.32C75.973 10.08 75.753 8.99 75.313 8.05C74.873 7.09 74.233 6.35 73.393 5.83C72.553 5.29 71.543 5.02 70.363 5.02H67.333V17.68H70.363C71.563 17.68 72.573 17.41 73.393 16.87C74.233 16.31 74.873 15.55 75.313 14.59C75.753 13.61 75.973 12.52 75.973 11.32ZM83.8877 22V0.699999H88.8077V22H83.8877Z" fill="black"/>
</svg>
